<svg class="animated" id="freepik_stories-address" xmlns="http://www.w3.org/2000/svg" viewBox="0 0 500 500" version="1.1" xmlns:xlink="http://www.w3.org/1999/xlink" xmlns:svgjs="http://svgjs.com/svgjs"><style>svg#freepik_stories-address:not(.animated) .animable {opacity: 0;}svg#freepik_stories-address.animated #freepik--Graphics--inject-23 {animation: 1.5s Infinite  linear floating;animation-delay: 0s;}            @keyframes floating {                0% {                    opacity: 1;                    transform: translateY(0px);                }                50% {                    transform: translateY(-10px);                }                100% {                    opacity: 1;                    transform: translateY(0px);                }            }        </style><g id="freepik--background-simple--inject-23" class="animable" style="transform-origin: 251.817px 195.342px;"><path d="M181.3,206.75c13.16-46.42-25.53-103.23,10.52-143.95,28.72-32.44,95.4-30.28,127.42-7.27,18.43,13.25,30.77,33.83,50.34,47.1,21,14.22,49.07,12,66.83,34.85,24,30.77,10.51,88-22.11,112.54-24.77,18.61-45.48,17.76-71.84,26.26-38.32,12.36-54.72,27-88.4,46.22-47.22,27-110.86,44.35-163.5,13.3-28.82-17-56.44-62-12.88-84.42C114.36,232.49,161.56,276.35,181.3,206.75Z" style="fill: #FF6347; transform-origin: 251.817px 195.342px;" id="elbe04sovqlek" class="animable"></path><g id="eli200bnwtcu"><path d="M181.3,206.75c13.16-46.42-25.53-103.23,10.52-143.95,28.72-32.44,95.4-30.28,127.42-7.27,18.43,13.25,30.77,33.83,50.34,47.1,21,14.22,49.07,12,66.83,34.85,24,30.77,10.51,88-22.11,112.54-24.77,18.61-45.48,17.76-71.84,26.26-38.32,12.36-54.72,27-88.4,46.22-47.22,27-110.86,44.35-163.5,13.3-28.82-17-56.44-62-12.88-84.42C114.36,232.49,161.56,276.35,181.3,206.75Z" style="fill: rgb(255, 255, 255); opacity: 0.9; transform-origin: 251.817px 195.342px;" class="animable" id="el55skuum4odx"></path></g></g><g id="freepik--Shadow--inject-23" class="animable" style="transform-origin: 250px 416.24px;"><ellipse cx="250" cy="416.24" rx="193.89" ry="11.32" style="fill: rgb(245, 245, 245); transform-origin: 250px 416.24px;" id="eld3etotktsz" class="animable"></ellipse></g><g id="freepik--Character--inject-23" class="animable animator-active" style="transform-origin: 315.431px 272.947px;"><path d="M351.94,189.79l.53.45.63.5c.42.34.87.68,1.31,1,.9.65,1.82,1.29,2.78,1.87a50.64,50.64,0,0,0,5.93,3.22,60.81,60.81,0,0,0,6.31,2.42c1.09.29,2.16.65,3.27.87l1.66.36.2,0h0l0,0s0,0-.05,0-.1.11,0,0a2.47,2.47,0,0,0,.48-.75,11.31,11.31,0,0,0,.81-2.76,44.24,44.24,0,0,0,.55-6.75c0-2.33,0-4.7-.14-7.07s-.29-4.78-.49-7.13l3.5-.63a91.18,91.18,0,0,1,2.44,14.66,42.61,42.61,0,0,1,0,7.74,18,18,0,0,1-.94,4.27,8.92,8.92,0,0,1-1.31,2.39,6.19,6.19,0,0,1-2.84,2.09,6.34,6.34,0,0,1-2.7.34l-.41-.05-.24,0-1.91-.31c-1.28-.19-2.53-.53-3.8-.8a51.47,51.47,0,0,1-7.34-2.47,52.87,52.87,0,0,1-6.9-3.55c-1.11-.67-2.18-1.41-3.24-2.18-.53-.39-1.05-.79-1.57-1.21-.26-.21-.51-.43-.77-.66s-.49-.43-.83-.75Z" style="fill: rgb(159, 91, 83); transform-origin: 364.348px 191.148px;" id="el0sz7le18lsb" class="animable"></path><path d="M341.91,185.59c10.13-1.38,18.31,6.81,18.31,6.81l-7.56,12.86S341,200.35,339.24,196C337.42,191.5,336.71,186.29,341.91,185.59Z" style="fill: #FF6347; transform-origin: 349.055px 195.347px;" id="elgaq89s2i9j4" class="animable"></path><g id="el10l5daxnnx6e"><path d="M341.91,185.59c10.13-1.38,18.31,6.81,18.31,6.81l-7.56,12.86S341,200.35,339.24,196C337.42,191.5,336.71,186.29,341.91,185.59Z" style="opacity: 0.3; transform-origin: 349.055px 195.347px;" class="animable" id="el2ngnzb4tm1l"></path></g><path d="M376.67,177.91l-5.55-5.12,8.23-3.21s2.61,4.4.5,8.8Z" style="fill: rgb(159, 91, 83); transform-origin: 375.897px 173.98px;" id="elxbhtnktdxpp" class="animable"></path><polygon points="370 165.45 376.55 164.2 379.35 169.58 371.12 172.79 370 165.45" style="fill: rgb(159, 91, 83); transform-origin: 374.675px 168.495px;" id="elnwjyqyem02" class="animable"></polygon><polygon points="306 408.57 314.16 409.37 322.66 389.94 314.5 389.14 306 408.57" style="fill: rgb(159, 91, 83); transform-origin: 314.33px 399.255px;" id="elii991i8clds" class="animable"></polygon><polygon points="253.43 379.85 259.56 385.61 272.79 371.06 266.66 365.31 253.43 379.85" style="fill: rgb(159, 91, 83); transform-origin: 263.11px 375.46px;" id="el2d7s7imb7mv" class="animable"></polygon><path d="M262.39,382.85l-4.61-8.3a.67.67,0,0,0-.83-.31l-7.09,2.7a1.35,1.35,0,0,0-.66,1.91c1.66,2.87,2.6,4.17,4.62,7.82,1.25,2.24,3.68,7.39,5.4,10.49s4.88,1.57,4.44.12c-2-6.48-1.6-10.09-1-12.95A2.22,2.22,0,0,0,262.39,382.85Z" style="fill: rgb(38, 50, 56); transform-origin: 256.364px 386.581px;" id="elxqjh85m08ga" class="animable"></path><path d="M315.25,406.85h-10a.83.83,0,0,0-.79.61l-2.18,7.93a1.24,1.24,0,0,0,1.23,1.58c3.53,0,5.2,0,9.61,0h13.47c3.67,0,4.43-3.7,2.92-4-6.8-1.5-10.72-3.58-12.81-5.55A2.06,2.06,0,0,0,315.25,406.85Z" style="fill: rgb(38, 50, 56); transform-origin: 316.237px 411.91px;" id="eli4ovcu6isaq" class="animable"></path><polygon points="322.65 389.95 318.28 399.96 309.76 399.96 314.49 389.15 322.65 389.95" style="fill: rgb(138, 71, 67); transform-origin: 316.205px 394.555px;" id="elt33tb6y3qo" class="animable"></polygon><polygon points="266.65 365.31 272.79 371.07 265.96 378.56 259.83 372.8 266.65 365.31" style="fill: rgb(138, 71, 67); transform-origin: 266.31px 371.935px;" id="eltt1htgudg3a" class="animable"></polygon><path d="M350.58,186.53s3.66,1.62-8.64,50.32l-34.19-3c1.78-13.87,2.54-22.45-1.65-51.58a102.21,102.21,0,0,1,14.69-.65A108.91,108.91,0,0,1,336.31,183,146.44,146.44,0,0,1,350.58,186.53Z" style="fill: #FF6347; transform-origin: 328.595px 209.215px;" id="el3aqbre82lyq" class="animable"></path><g id="el2qx4k8xusv4"><path d="M350.58,186.53s3.66,1.62-8.64,50.32l-34.19-3c1.78-13.87,2.54-22.45-1.65-51.58a102.21,102.21,0,0,1,14.69-.65A108.91,108.91,0,0,1,336.31,183,146.44,146.44,0,0,1,350.58,186.53Z" style="opacity: 0.3; transform-origin: 328.595px 209.215px;" class="animable" id="elynsj30l8ikj"></path></g><path d="M320.79,181.66s-1.94-.21-4.23-.21c-1.38,2.13,2.81,10.22,10.21,16.3a29.78,29.78,0,0,1,6.23-7.42Z" style="fill: rgb(250, 250, 250); transform-origin: 324.649px 189.6px;" id="elazc44skr9ju" class="animable"></path><path d="M336.31,183a15.42,15.42,0,0,1,2.93.47c1.38,2.13,4.05,9.66,0,14.28a29.78,29.78,0,0,0-6.23-7.42Z" style="fill: rgb(250, 250, 250); transform-origin: 337.199px 190.375px;" id="eltm1ckhfrfn8" class="animable"></path><path d="M334.11,195.75c0,.61-.17,1.11-.46,1.13s-.54-.47-.58-1.07.17-1.12.46-1.13S334.08,195.14,334.11,195.75Z" style="fill: rgb(250, 250, 250); transform-origin: 333.588px 195.78px;" id="elfde3wb84gi6" class="animable"></path><path d="M334,200.38c0,.6-.26,1.09-.55,1.09s-.5-.51-.49-1.12.26-1.09.55-1.09S334.05,199.77,334,200.38Z" style="fill: rgb(250, 250, 250); transform-origin: 333.483px 200.365px;" id="eli9n6qudqcy" class="animable"></path><path d="M323.84,164.31c.55,5.08.73,14.32-3,17.35A57.68,57.68,0,0,0,333,190.33c5.94-4.1,3.31-7.33,3.31-7.33-5.45-1.81-4.95-5.93-3.65-9.73Z" style="fill: rgb(159, 91, 83); transform-origin: 328.865px 177.32px;" id="el80b9sukzf3o" class="animable"></path><path d="M327.44,168l5.22,5.3a16.7,16.7,0,0,0-.72,2.71c-2.1-.49-5.14-2.67-5.17-4.92A8.79,8.79,0,0,1,327.44,168Z" style="fill: rgb(138, 71, 67); transform-origin: 329.715px 172.005px;" id="elng14khrr07c" class="animable"></path><path d="M333.82,149.26s5.54,5.44,6.76,8.09c3.36,1.25,2.45-7.6-.1-12.72C336,148.62,333.82,149.26,333.82,149.26Z" style="fill: rgb(38, 50, 56); transform-origin: 338.291px 151.05px;" id="elg3s62i22m3c" class="animable"></path><path d="M319.37,156.37c2.12,8.12,2.84,11.6,7.82,15,7.48,5.11,17,.73,17.33-7.85.32-7.73-3.2-19.7-11.88-21.38A11.43,11.43,0,0,0,319.37,156.37Z" style="fill: rgb(159, 91, 83); transform-origin: 331.751px 157.734px;" id="elk6fgwwunnhr" class="animable"></path><path d="M337.78,146c3.72.55,7.43-2.93,1.41-6.66,1.93-.2,4-7-3-6.63-.34-3.23-7.27-6.11-11-1-4.31-2.84-10.43.06-9.06,4.47-4.95.31-7.53,7.07-3.44,8.17-4.92,3-5.78,7.85-1,8.73.66,5.61,11.65,3.1,10.8-2.12,2,1.07,8.28-1.23,7-4C331.52,149.57,337.78,148.38,337.78,146Z" style="fill: rgb(38, 50, 56); transform-origin: 325.445px 142.592px;" id="elddgl3bb1svk" class="animable"></path><path d="M315,153.14s4.08,6.6,4.62,9.47c3,2,4.21-6.79,3-12.37C317.25,153,315,153.14,315,153.14Z" style="fill: rgb(38, 50, 56); transform-origin: 319.042px 156.57px;" id="elfgsxn6kdrht" class="animable"></path><path d="M318.7,163.7a6.17,6.17,0,0,0,3.6,3c2.06.61,3.13-1.22,2.6-3.18-.49-1.77-2.14-4.22-4.22-4A2.76,2.76,0,0,0,318.7,163.7Z" style="fill: rgb(159, 91, 83); transform-origin: 321.663px 163.163px;" id="el79uzrqqtii4" class="animable"></path><path d="M341.94,236.85s11.57,51.17,3.84,87.24c-5.17,24.16-23.82,73-23.82,73l-14.58-.38s14.12-51.22,17-71.36c5-34.46-7.52-90.64-7.52-90.64Z" style="fill: #FF6347; transform-origin: 327.911px 315.9px;" id="eld76zenxf3d" class="animable"></path><g id="ele9f3osbkk7q"><path d="M341.94,236.85s11.57,51.17,3.84,87.24c-5.17,24.16-23.82,73-23.82,73l-14.58-.38s14.12-51.22,17-71.36c5-34.46-7.52-90.64-7.52-90.64Z" style="fill: rgb(250, 250, 250); opacity: 0.6; transform-origin: 327.911px 315.9px;" class="animable" id="elhupb6ek1cw7"></path></g><path d="M328.6,247.18l-7.29,11.5a352.87,352.87,0,0,1,4.17,41.19C335.73,281.51,330.88,256.9,328.6,247.18Z" style="fill: #FF6347; transform-origin: 326.535px 273.525px;" id="el479kqlpus88" class="animable"></path><g id="eleafpl7e04bb"><path d="M328.6,247.18l-7.29,11.5a352.87,352.87,0,0,1,4.17,41.19C335.73,281.51,330.88,256.9,328.6,247.18Z" style="fill: rgb(250, 250, 250); opacity: 0.4; transform-origin: 326.535px 273.525px;" class="animable" id="elgy41lth6fmu"></path></g><polygon points="324.02 397.81 306 397.36 307.05 391.82 326.71 392.75 324.02 397.81" style="fill: #FF6347; transform-origin: 316.355px 394.815px;" id="el8mjez7r1rzi" class="animable"></polygon><g id="el670zao7yhip"><polygon points="324.02 397.81 306 397.36 307.05 391.82 326.71 392.75 324.02 397.81" style="opacity: 0.3; transform-origin: 316.355px 394.815px;" class="animable" id="elwr65m3xjp9e"></polygon></g><path d="M334.46,236.3s-6.78,54.27-21.49,83.89c-11.88,23.93-43.59,58-43.59,58l-8.1-8.35s21.41-37,30.24-52.92c21.65-39,4-68.72,16.23-83Z" style="fill: #FF6347; transform-origin: 297.87px 306.055px;" id="elrnxtcyevbbd" class="animable"></path><g id="el1ljnalfj18l"><path d="M334.46,236.3s-6.78,54.27-21.49,83.89c-11.88,23.93-43.59,58-43.59,58l-8.1-8.35s21.41-37,30.24-52.92c21.65-39,4-68.72,16.23-83Z" style="fill: rgb(250, 250, 250); opacity: 0.6; transform-origin: 297.87px 306.055px;" class="animable" id="el95pnwwt6x74"></path></g><polygon points="270.2 379.3 259.74 369.11 263.21 364.38 274.61 376.17 270.2 379.3" style="fill: #FF6347; transform-origin: 267.175px 371.84px;" id="el2tweisgroqn" class="animable"></polygon><g id="el3thye0fez82"><polygon points="270.2 379.3 259.74 369.11 263.21 364.38 274.61 376.17 270.2 379.3" style="opacity: 0.3; transform-origin: 267.175px 371.84px;" class="animable" id="el8hms9ouv7yo"></polygon></g><path d="M307.41,231.84l-1.81,2.92c-.14.23.13.5.52.53l35.85,3.1c.31,0,.58-.1.62-.29l.57-3c0-.21-.21-.42-.55-.45l-34.62-3A.63.63,0,0,0,307.41,231.84Z" style="fill: rgb(38, 50, 56); transform-origin: 324.361px 235.014px;" id="el59zxrbt7eww" class="animable"></path><path d="M311.73,236.11l-.93-.08c-.19,0-.32-.12-.3-.24l.78-3.94c0-.11.2-.19.38-.18l.93.08c.18,0,.31.13.29.24l-.78,3.94C312.08,236.05,311.91,236.13,311.73,236.11Z" style="fill: #FF6347; transform-origin: 311.69px 233.891px;" id="el3m93mhnzj9w" class="animable"></path><g id="el30zyrcfqi5m"><path d="M311.73,236.11l-.93-.08c-.19,0-.32-.12-.3-.24l.78-3.94c0-.11.2-.19.38-.18l.93.08c.18,0,.31.13.29.24l-.78,3.94C312.08,236.05,311.91,236.13,311.73,236.11Z" style="fill: rgb(250, 250, 250); opacity: 0.6; transform-origin: 311.69px 233.891px;" class="animable" id="el4k2j3k7sx8c"></path></g><path d="M339.34,238.5l-.93-.08c-.18,0-.31-.12-.29-.24l.78-3.94c0-.11.19-.19.37-.18l.93.08c.19,0,.32.13.3.24l-.78,3.94A.35.35,0,0,1,339.34,238.5Z" style="fill: #FF6347; transform-origin: 339.31px 236.283px;" id="elyrquibexjh" class="animable"></path><g id="eldy7nst4qv9r"><path d="M339.34,238.5l-.93-.08c-.18,0-.31-.12-.29-.24l.78-3.94c0-.11.19-.19.37-.18l.93.08c.19,0,.32.13.3.24l-.78,3.94A.35.35,0,0,1,339.34,238.5Z" style="fill: rgb(250, 250, 250); opacity: 0.6; transform-origin: 339.31px 236.283px;" class="animable" id="el42asunmha4a"></path></g><path d="M325.53,237.31l-.92-.08c-.19,0-.32-.13-.3-.24l.78-3.94c0-.12.19-.2.38-.18l.92.08c.19,0,.32.12.3.24l-.78,3.93C325.89,237.24,325.72,237.32,325.53,237.31Z" style="fill: #FF6347; transform-origin: 325.5px 235.089px;" id="elsiysf4596p" class="animable"></path><g id="elc9l1vjexeu"><path d="M325.53,237.31l-.92-.08c-.19,0-.32-.13-.3-.24l.78-3.94c0-.12.19-.2.38-.18l.92.08c.19,0,.32.12.3.24l-.78,3.93C325.89,237.24,325.72,237.32,325.53,237.31Z" style="fill: rgb(250, 250, 250); opacity: 0.6; transform-origin: 325.5px 235.089px;" class="animable" id="eluzuafkty9ln"></path></g><path d="M332.28,156.22c.13.67.59,1.14,1,1.05s.68-.69.55-1.36-.59-1.14-1-1.06S332.15,155.55,332.28,156.22Z" style="fill: rgb(38, 50, 56); transform-origin: 333.055px 156.061px;" id="elqo8nfoqjm29" class="animable"></path><path d="M339.84,154.73c.13.67.59,1.14,1,1.06s.68-.7.55-1.37-.59-1.14-1-1S339.7,154.06,339.84,154.73Z" style="fill: rgb(38, 50, 56); transform-origin: 340.613px 154.597px;" id="elf0lpijj8z3n" class="animable"></path><path d="M340.2,153.44l1.52-.78S341.14,154.08,340.2,153.44Z" style="fill: rgb(38, 50, 56); transform-origin: 340.96px 153.133px;" id="el8t13lfl233o" class="animable"></path><path d="M338.06,156.28a18.35,18.35,0,0,0,3.23,3.79,2.94,2.94,0,0,1-2.3.92Z" style="fill: rgb(137, 43, 41); transform-origin: 339.675px 158.637px;" id="elpqigvyuz2yg" class="animable"></path><path d="M335.9,164.18a5.54,5.54,0,0,1-3.81-1.45.18.18,0,0,1,0-.24.17.17,0,0,1,.24,0,5.46,5.46,0,0,0,4.75,1.23.17.17,0,0,1,.2.13.16.16,0,0,1-.13.19A6.25,6.25,0,0,1,335.9,164.18Z" style="fill: rgb(38, 50, 56); transform-origin: 334.664px 163.31px;" id="el7xmq1yd5srg" class="animable"></path><path d="M328.56,152a.38.38,0,0,1-.17,0,.34.34,0,0,1-.11-.46,3.88,3.88,0,0,1,3-1.95h0a.34.34,0,0,1,.34.32.33.33,0,0,1-.32.34,3.27,3.27,0,0,0-2.47,1.63A.32.32,0,0,1,328.56,152Z" style="fill: rgb(38, 50, 56); transform-origin: 329.926px 150.8px;" id="elwx79x7zjfz8" class="animable"></path><path d="M342.76,150.82a.32.32,0,0,1-.16,0,3.24,3.24,0,0,0-3-.19.34.34,0,0,1-.45-.14.34.34,0,0,1,.14-.45,3.88,3.88,0,0,1,3.58.2.33.33,0,0,1,.13.45A.32.32,0,0,1,342.76,150.82Z" style="fill: rgb(38, 50, 56); transform-origin: 341.078px 150.263px;" id="elbmcutpdcll6" class="animable"></path><path d="M308.7,194.55a83.92,83.92,0,0,1-4.62,8.07c-1.68,2.58-3.46,5.08-5.37,7.51a77.91,77.91,0,0,1-6.22,6.91c-1.13,1.08-2.26,2.16-3.48,3.16l-.9.77a10.9,10.9,0,0,1-1.34.94,7.23,7.23,0,0,1-3.81,1,6.82,6.82,0,0,1-3.77-1.33,10.29,10.29,0,0,1-2.22-2.2,21.6,21.6,0,0,1-2.53-4.51,54.12,54.12,0,0,1-2.81-8.93A119.26,119.26,0,0,1,269,188l3.53-.44c.57,2.84,1.18,5.74,1.89,8.58s1.43,5.67,2.3,8.41a58.84,58.84,0,0,0,3,7.88,15.94,15.94,0,0,0,2,3.15,4.43,4.43,0,0,0,1,.87c.28.16.37.13.38.11a1.3,1.3,0,0,0,.4-.2c.13-.09.29-.22.46-.36l.76-.72c1-.93,2-1.95,3-3,1.92-2.07,3.7-4.29,5.44-6.54s3.33-4.65,4.85-7.08c.77-1.2,1.51-2.43,2.24-3.67s1.42-2.52,2-3.68Z" style="fill: rgb(159, 91, 83); transform-origin: 288.85px 205.236px;" id="elan254a1muwq" class="animable"></path><path d="M274.1,188.79l-.89-7.49-7.42,4.78s2.43,4,5.79,5.08Z" style="fill: rgb(159, 91, 83); transform-origin: 269.945px 186.23px;" id="elshpdv8fx2jm" class="animable"></path><polygon points="270.46 178.26 265.61 182.84 265.79 186.08 273.21 181.3 270.46 178.26" style="fill: rgb(159, 91, 83); transform-origin: 269.41px 182.17px;" id="elbroegsezmka" class="animable"></polygon><path d="M306.1,182.31c-4.19.75-10.06,12.77-10.06,12.77l10.57,9.55s8.4-9.16,7.95-14.62C314.18,185.37,311.44,181.37,306.1,182.31Z" style="fill: #FF6347; transform-origin: 305.309px 193.401px;" id="el18pjo0xbo9q" class="animable"></path><g id="elkw36wtoq73e"><path d="M306.1,182.31c-4.19.75-10.06,12.77-10.06,12.77l10.57,9.55s8.4-9.16,7.95-14.62C314.18,185.37,311.44,181.37,306.1,182.31Z" style="opacity: 0.3; transform-origin: 305.309px 193.401px;" class="animable" id="elay9377vp91"></path></g><path d="M264,387.31a.87.87,0,0,1-.32-.06c-1-.33-1.66-2.19-2-3.27a.18.18,0,0,1,.06-.17.17.17,0,0,1,.18,0c.31.16,3,1.59,3.07,2.65a.64.64,0,0,1-.28.59A1.2,1.2,0,0,1,264,387.31Zm-1.85-3c.46,1.48,1.06,2.47,1.63,2.66a.82.82,0,0,0,.76-.17.32.32,0,0,0,.15-.3C264.64,385.82,263.07,384.8,262.15,384.28Z" style="fill: #FF6347; transform-origin: 263.335px 385.547px;" id="elf6hilwjbydq" class="animable"></path><path d="M264.42,384.7a6,6,0,0,1-2.63-.62.16.16,0,0,1-.08-.14.18.18,0,0,1,.08-.15c.09-.05,2.21-1.21,3.35-.81a1,1,0,0,1,.63.6.68.68,0,0,1-.15.82A2,2,0,0,1,264.42,384.7Zm-2.18-.76c.91.39,2.67.63,3.16.2.08-.07.17-.18.06-.44a.66.66,0,0,0-.43-.4C264.26,383,262.84,383.64,262.24,383.94Z" style="fill: #FF6347; transform-origin: 263.778px 383.801px;" id="elnmik39y9g5n" class="animable"></path><path d="M319.7,408.47a13.44,13.44,0,0,1-2.74-.35.16.16,0,0,1-.13-.14.17.17,0,0,1,.09-.17c.42-.2,4.06-1.87,5-1.26a.57.57,0,0,1,.24.52,1.23,1.23,0,0,1-.5.94A3.31,3.31,0,0,1,319.7,408.47Zm-2.17-.57c1.08.2,3.08.46,3.9-.16a.85.85,0,0,0,.36-.69c0-.14,0-.19-.09-.22C321.19,406.48,319,407.23,317.53,407.9Z" style="fill: #FF6347; transform-origin: 319.496px 407.448px;" id="el9u4oqvxypmb" class="animable"></path><path d="M317,408.13a.21.21,0,0,1-.11,0,.18.18,0,0,1-.06-.17c0-.15.89-3.75,2.84-3.51.49.06.63.31.65.5.13.92-2.17,2.76-3.26,3.2Zm2.49-3.4c-1.26,0-2,2.09-2.24,2.93,1.18-.62,2.82-2.12,2.74-2.7,0,0,0-.18-.36-.22Z" style="fill: #FF6347; transform-origin: 318.576px 406.294px;" id="elj992famc6r" class="animable"></path><path d="M332.65,154.93l1.51-.78S333.58,155.57,332.65,154.93Z" style="fill: rgb(38, 50, 56); transform-origin: 333.405px 154.623px;" id="eldi4bpl6wda6" class="animable"></path></g><g id="freepik--Graphics--inject-23" class="animable" style="transform-origin: 197.249px 244.375px;"><path d="M123.53,157a95.27,95.27,0,0,1,67.59-28h13.53s63.83,16.71,63.83,85.09c0,66.84-44.19,126-63.82,145.66H191.14l-67.61-67.61A95.6,95.6,0,0,1,123.53,157Zm67.6,112a44.38,44.38,0,1,0-44.38-44.37A44.38,44.38,0,0,0,191.13,268.92Z" style="fill: rgb(38, 50, 56); transform-origin: 182.019px 244.375px;" id="ellfx3mhdxgg9" class="animable"></path><path d="M274,155.19a100.32,100.32,0,0,0-12.8-10.81l.57-.82a101,101,0,0,1,12.94,10.93Zm-18.78-14.72c-2.35-1.42-4.79-2.76-7.24-4l.44-.9c2.48,1.23,4.94,2.58,7.32,4Z" style="fill: #FF6347; transform-origin: 261.345px 145.38px;" id="elbsanjfa2te8" class="animable"></path><g id="el4fzgf4maecc"><path d="M274,155.19a100.32,100.32,0,0,0-12.8-10.81l.57-.82a101,101,0,0,1,12.94,10.93Zm-18.78-14.72c-2.35-1.42-4.79-2.76-7.24-4l.44-.9c2.48,1.23,4.94,2.58,7.32,4Z" style="opacity: 0.2; transform-origin: 261.345px 145.38px;" class="animable" id="elkrnxa8cbirr"></path></g><path d="M137.05,157A95.59,95.59,0,0,1,272.23,292.14l-67.57,67.58-67.61-67.61A95.58,95.58,0,0,1,137.05,157Zm67.6,112a44.38,44.38,0,1,0-44.38-44.37A44.38,44.38,0,0,0,204.65,268.92Z" style="fill: #FF6347; transform-origin: 204.012px 244.996px;" id="elevtx2h5qesm" class="animable"></path><g id="elw1dgu46rmep"><path d="M137.05,157A95.59,95.59,0,0,1,272.23,292.14l-67.57,67.58-67.61-67.61A95.58,95.58,0,0,1,137.05,157Zm67.6,112a44.38,44.38,0,1,0-44.38-44.37A44.38,44.38,0,0,0,204.65,268.92Z" style="opacity: 0.2; transform-origin: 204.012px 244.996px;" class="animable" id="elhn4nppmbd8h"></path></g><g id="elcjos0fobi9p"><path d="M204.66,354.31a.25.25,0,0,1-.18-.08L139.7,289.46a91.82,91.82,0,1,1,129.88,0l-64.75,64.74A.23.23,0,0,1,204.66,354.31Zm0-221.09a91.32,91.32,0,0,0-64.56,155.89l64.6,64.59,64.57-64.56.17.17-.17-.17a91.35,91.35,0,0,0-64.61-155.92Zm0,140a48.63,48.63,0,1,1,48.63-48.62A48.68,48.68,0,0,1,204.65,273.17Zm0-96.75a48.13,48.13,0,1,0,48.13,48.13A48.18,48.18,0,0,0,204.65,176.42Z" style="fill: rgb(250, 250, 250); opacity: 0.4; mix-blend-mode: color-dodge; transform-origin: 204.64px 243.518px;" class="animable" id="elt46rsjf23d"></path></g></g><defs>     <filter id="active" height="200%">         <feMorphology in="SourceAlpha" result="DILATED" operator="dilate" radius="2"></feMorphology>                <feFlood flood-color="#32DFEC" flood-opacity="1" result="PINK"></feFlood>        <feComposite in="PINK" in2="DILATED" operator="in" result="OUTLINE"></feComposite>        <feMerge>            <feMergeNode in="OUTLINE"></feMergeNode>            <feMergeNode in="SourceGraphic"></feMergeNode>        </feMerge>    </filter>    <filter id="hover" height="200%">        <feMorphology in="SourceAlpha" result="DILATED" operator="dilate" radius="2"></feMorphology>                <feFlood flood-color="#ff0000" flood-opacity="0.5" result="PINK"></feFlood>        <feComposite in="PINK" in2="DILATED" operator="in" result="OUTLINE"></feComposite>        <feMerge>            <feMergeNode in="OUTLINE"></feMergeNode>            <feMergeNode in="SourceGraphic"></feMergeNode>        </feMerge>            <feColorMatrix type="matrix" values="0   0   0   0   0                0   1   0   0   0                0   0   0   0   0                0   0   0   1   0 "></feColorMatrix>    </filter></defs></svg>